<svg width="483" height="542" viewBox="0 0 483 542" fill="none" xmlns="http://www.w3.org/2000/svg">
<path d="M279 264C279 268.418 282.582 272 287 272C291.418 272 295 268.418 295 264C295 259.582 291.418 256 287 256C282.582 256 279 259.582 279 264ZM287 265.5L375 265.5L375 262.5L287 262.5L287 265.5Z" fill="#0D2237"/>
<path d="M234.343 149.882C237.467 153.006 242.533 153.006 245.657 149.882C248.781 146.758 248.781 141.693 245.657 138.569C242.533 135.444 237.467 135.444 234.343 138.569C231.219 141.693 231.219 146.758 234.343 149.882ZM241.061 145.286L303.286 83.0607L301.165 80.9393L238.939 143.165L241.061 145.286Z" fill="#0D2237"/>
<path d="M234.343 378.343C231.219 381.467 231.219 386.533 234.343 389.657C237.467 392.781 242.533 392.781 245.657 389.657C248.781 386.533 248.781 381.467 245.657 378.343C242.533 375.219 237.467 375.219 234.343 378.343ZM238.939 385.061L301.165 447.286L303.286 445.165L241.061 382.939L238.939 385.061Z" fill="#0D2237"/>
<path d="M105 80C103.895 80 103 80.8954 103 82C103 83.1046 103.895 84 105 84V80ZM105 84C204.413 84 285 164.587 285 264H289C289 162.378 206.622 80 105 80V84ZM285 264C285 363.413 204.413 444 105 444V448C206.622 448 289 365.622 289 264H285Z" fill="#0D2237"/>
<rect x="10" y="157" width="196" height="199" rx="98" stroke="url(#paint0_linear_140_2523)" stroke-width="20"/>
<path d="M52.8 251.26V272H46.6V251.26H52.8ZM53.52 245.58C53.52 246.073 53.42 246.54 53.22 246.98C53.02 247.407 52.7467 247.787 52.4 248.12C52.0533 248.44 51.6467 248.7 51.18 248.9C50.7267 249.087 50.24 249.18 49.72 249.18C49.2133 249.18 48.74 249.087 48.3 248.9C47.86 248.7 47.4667 248.44 47.12 248.12C46.7867 247.787 46.52 247.407 46.32 246.98C46.1333 246.54 46.04 246.073 46.04 245.58C46.04 245.073 46.1333 244.6 46.32 244.16C46.52 243.72 46.7867 243.333 47.12 243C47.4667 242.667 47.86 242.407 48.3 242.22C48.74 242.033 49.2133 241.94 49.72 241.94C50.24 241.94 50.7267 242.033 51.18 242.22C51.6467 242.407 52.0533 242.667 52.4 243C52.7467 243.333 53.02 243.72 53.22 244.16C53.42 244.6 53.52 245.073 53.52 245.58ZM78.9663 242.86V248.22H70.7663V272H64.0063V248.22H55.8063V242.86H78.9663ZM87.0072 250.94C88.5805 250.94 90.0139 251.187 91.3072 251.68C92.6005 252.173 93.7072 252.88 94.6272 253.8C95.5605 254.72 96.2805 255.84 96.7872 257.16C97.3072 258.467 97.5672 259.94 97.5672 261.58C97.5672 263.233 97.3072 264.727 96.7872 266.06C96.2805 267.38 95.5605 268.507 94.6272 269.44C93.7072 270.36 92.6005 271.073 91.3072 271.58C90.0139 272.073 88.5805 272.32 87.0072 272.32C85.4205 272.32 83.9739 272.073 82.6672 271.58C81.3739 271.073 80.2539 270.36 79.3072 269.44C78.3739 268.507 77.6472 267.38 77.1272 266.06C76.6205 264.727 76.3672 263.233 76.3672 261.58C76.3672 259.94 76.6205 258.467 77.1272 257.16C77.6472 255.84 78.3739 254.72 79.3072 253.8C80.2539 252.88 81.3739 252.173 82.6672 251.68C83.9739 251.187 85.4205 250.94 87.0072 250.94ZM87.0072 267.72C88.4339 267.72 89.4805 267.22 90.1472 266.22C90.8272 265.207 91.1672 263.673 91.1672 261.62C91.1672 259.567 90.8272 258.04 90.1472 257.04C89.4805 256.04 88.4339 255.54 87.0072 255.54C85.5405 255.54 84.4672 256.04 83.7872 257.04C83.1072 258.04 82.7672 259.567 82.7672 261.62C82.7672 263.673 83.1072 265.207 83.7872 266.22C84.4672 267.22 85.5405 267.72 87.0072 267.72ZM98.5703 251.26H103.53C103.97 251.26 104.35 251.36 104.67 251.56C104.99 251.76 105.184 252.02 105.25 252.34L107.33 261.64C107.49 262.347 107.637 263.033 107.77 263.7C107.904 264.367 108.024 265.027 108.13 265.68C108.317 265.027 108.51 264.373 108.71 263.72C108.924 263.053 109.13 262.36 109.33 261.64L111.93 252.32C112.01 252.013 112.204 251.76 112.51 251.56C112.817 251.347 113.17 251.24 113.57 251.24H116.33C116.77 251.24 117.144 251.347 117.45 251.56C117.77 251.76 117.97 252.013 118.05 252.32L120.53 261.64C120.717 262.347 120.904 263.033 121.09 263.7C121.29 264.367 121.477 265.04 121.65 265.72C121.757 265.053 121.884 264.393 122.03 263.74C122.19 263.073 122.357 262.373 122.53 261.64L124.73 252.34C124.797 252.02 124.984 251.76 125.29 251.56C125.61 251.36 125.97 251.26 126.37 251.26H131.09L124.65 272H119.61C119.344 272 119.117 271.92 118.93 271.76C118.744 271.6 118.597 271.333 118.49 270.96L115.53 260.62C115.397 260.153 115.27 259.693 115.15 259.24C115.03 258.787 114.924 258.333 114.83 257.88C114.737 258.347 114.63 258.813 114.51 259.28C114.404 259.733 114.277 260.193 114.13 260.66L111.13 270.96C110.93 271.653 110.49 272 109.81 272H105.01L98.5703 251.26ZM133.509 272V251.26H137.349C137.736 251.26 138.056 251.347 138.309 251.52C138.576 251.693 138.763 251.953 138.869 252.3L139.229 253.5C139.629 253.127 140.043 252.78 140.469 252.46C140.896 252.14 141.349 251.873 141.829 251.66C142.323 251.433 142.849 251.26 143.409 251.14C143.983 251.007 144.603 250.94 145.269 250.94C146.403 250.94 147.403 251.14 148.269 251.54C149.149 251.927 149.889 252.473 150.489 253.18C151.089 253.873 151.543 254.707 151.849 255.68C152.156 256.64 152.309 257.687 152.309 258.82V272H146.109V258.82C146.109 257.807 145.876 257.02 145.409 256.46C144.943 255.887 144.256 255.6 143.349 255.6C142.669 255.6 142.029 255.747 141.429 256.04C140.829 256.333 140.256 256.727 139.709 257.22V272H133.509ZM169.393 255.8C169.233 256.053 169.059 256.233 168.873 256.34C168.699 256.447 168.473 256.5 168.193 256.5C167.899 256.5 167.606 256.44 167.313 256.32C167.019 256.187 166.699 256.047 166.353 255.9C166.019 255.753 165.639 255.62 165.213 255.5C164.786 255.367 164.299 255.3 163.753 255.3C162.966 255.3 162.359 255.453 161.933 255.76C161.519 256.053 161.313 256.467 161.313 257C161.313 257.387 161.446 257.707 161.713 257.96C161.993 258.213 162.359 258.44 162.813 258.64C163.266 258.827 163.779 259.007 164.353 259.18C164.926 259.353 165.513 259.547 166.113 259.76C166.713 259.973 167.299 260.227 167.873 260.52C168.446 260.8 168.959 261.153 169.413 261.58C169.866 261.993 170.226 262.5 170.493 263.1C170.773 263.7 170.913 264.42 170.913 265.26C170.913 266.287 170.726 267.233 170.353 268.1C169.979 268.967 169.419 269.713 168.673 270.34C167.939 270.967 167.026 271.453 165.933 271.8C164.853 272.147 163.606 272.32 162.193 272.32C161.486 272.32 160.779 272.253 160.073 272.12C159.366 271.987 158.679 271.807 158.013 271.58C157.359 271.353 156.753 271.087 156.193 270.78C155.633 270.46 155.153 270.12 154.753 269.76L156.193 267.48C156.366 267.213 156.573 267.007 156.812 266.86C157.053 266.7 157.366 266.62 157.753 266.62C158.113 266.62 158.433 266.7 158.713 266.86C159.006 267.02 159.319 267.193 159.653 267.38C159.986 267.567 160.373 267.74 160.813 267.9C161.266 268.06 161.833 268.14 162.513 268.14C162.993 268.14 163.399 268.093 163.733 268C164.066 267.893 164.333 267.753 164.533 267.58C164.733 267.407 164.879 267.213 164.973 267C165.066 266.787 165.113 266.567 165.113 266.34C165.113 265.927 164.973 265.587 164.693 265.32C164.413 265.053 164.046 264.827 163.593 264.64C163.139 264.44 162.619 264.26 162.033 264.1C161.459 263.927 160.873 263.733 160.273 263.52C159.673 263.307 159.079 263.053 158.493 262.76C157.919 262.453 157.406 262.073 156.952 261.62C156.499 261.153 156.133 260.587 155.853 259.92C155.573 259.253 155.433 258.447 155.433 257.5C155.433 256.62 155.599 255.787 155.933 255C156.279 254.2 156.793 253.5 157.473 252.9C158.153 252.3 159.006 251.827 160.033 251.48C161.059 251.12 162.259 250.94 163.633 250.94C164.379 250.94 165.099 251.007 165.793 251.14C166.499 251.273 167.159 251.46 167.773 251.7C168.386 251.94 168.946 252.227 169.453 252.56C169.959 252.88 170.406 253.233 170.793 253.62L169.393 255.8Z" fill="#0D2237"/>
<g clip-path="url(#clip0_140_2523)">
<path d="M340.526 105.566C369.267 105.566 392.566 82.2669 392.566 53.5263C392.566 24.7857 369.267 1.48685 340.526 1.48685C311.786 1.48685 288.487 24.7857 288.487 53.5263C288.487 82.2669 311.786 105.566 340.526 105.566Z" fill="white" stroke="#0D2237" stroke-width="3" stroke-miterlimit="10"/>
<path d="M300.392 32.2305C301.195 32.4667 301.998 32.703 302.802 32.9392C314.424 36.2937 326.094 39.6483 337.717 43.0028C337.906 43.05 338.095 43.0973 338.237 43.1918C338.568 43.3335 338.615 43.617 338.379 43.9005C338.284 44.0422 338.142 44.1367 338.048 44.2312C328.835 53.0664 319.669 61.9488 310.456 70.784C310.408 70.8312 310.361 70.8785 310.267 70.973C309.605 71.5872 309.322 71.4927 309.133 70.6423C307.668 64.6891 306.203 58.736 304.739 52.8302C303.132 46.2628 301.479 39.6955 299.872 33.0809C299.731 32.514 299.872 32.2305 300.345 32.2777L300.392 32.2305ZM309.936 70.028C312.015 67.9964 313.999 66.1065 316.078 64.1222C313.338 63.319 310.645 62.563 307.904 61.7598C308.613 64.5474 309.274 67.2405 309.936 70.028ZM311.92 45.7431C309.889 47.6802 307.904 49.6174 305.873 51.6017C308.613 52.4049 311.212 53.1609 313.952 53.9168C313.29 51.1765 312.629 48.5307 311.92 45.7431ZM311.306 45.0817C308.613 44.3257 305.967 43.5698 303.227 42.7666C303.935 45.5541 304.55 48.2 305.258 50.9403C307.337 48.9559 309.274 47.066 311.306 45.0817ZM330.205 50.5623C327.464 49.7591 324.819 49.0032 322.126 48.2472C322.787 51.0348 323.448 53.6806 324.157 56.4209C326.189 54.4366 328.173 52.5467 330.205 50.5623ZM321.275 48.4362C319.244 50.3733 317.259 52.3104 315.228 54.2476C317.968 55.0508 320.614 55.8067 323.307 56.5627C322.645 53.7751 321.984 51.1293 321.275 48.389V48.4362ZM302.896 41.4437C304.928 39.4593 306.912 37.5694 308.944 35.6323C306.251 34.8291 303.605 34.1204 300.864 33.3172C301.526 36.1047 302.187 38.7033 302.896 41.4437ZM337.245 43.7588C334.552 42.9556 331.906 42.2469 329.213 41.4437C329.874 44.184 330.536 46.8298 331.197 49.5701C333.229 47.5858 335.213 45.6959 337.245 43.7588ZM321.795 46.7826C323.826 44.8454 325.764 42.9556 327.748 41.0184C325.055 40.2625 322.504 39.5065 319.81 38.7506C320.472 41.4909 321.133 44.0422 321.795 46.7826ZM308.282 60.9566C310.975 61.7126 313.527 62.4685 316.22 63.2245C315.558 60.4842 314.897 57.9328 314.235 55.1925C312.204 57.1296 310.267 58.9723 308.282 60.9094V60.9566ZM314.708 53.5389C316.739 51.6017 318.677 49.7119 320.661 47.7747C318.015 47.0188 315.417 46.2628 312.723 45.5069C313.385 48.2 314.046 50.7985 314.708 53.5389ZM303.605 41.9634C306.298 42.7193 308.849 43.4753 311.542 44.2312C310.881 41.4909 310.219 38.8923 309.558 36.1992C307.526 38.1364 305.589 39.979 303.605 41.9161V41.9634ZM330.347 49.6646C329.685 46.9243 329.024 44.3257 328.362 41.6326C326.331 43.5698 324.393 45.4596 322.409 47.3495C325.055 48.1055 327.606 48.8614 330.347 49.6174V49.6646ZM313.527 54.6728C310.834 53.9168 308.282 53.1609 305.589 52.4049C306.251 55.098 306.912 57.7438 307.574 60.4369C309.558 58.4998 311.495 56.6572 313.527 54.72V54.6728ZM312.393 44.0422C314.377 42.1051 316.314 40.2625 318.346 38.3254C315.7 37.5694 313.149 36.8135 310.456 36.0575C311.117 38.7506 311.778 41.3492 312.44 44.0422H312.393ZM323.023 57.4604C320.33 56.7044 317.779 55.9485 315.133 55.1925C315.794 57.9328 316.456 60.4842 317.117 63.1772C319.149 61.2401 321.039 59.3975 323.071 57.4604H323.023ZM320.897 46.9243C320.236 44.2312 319.574 41.6326 318.913 38.9396C316.881 40.8767 314.991 42.7193 313.007 44.6564C315.653 45.4124 318.204 46.1683 320.897 46.9243Z" fill="#0D2237"/>
<path d="M353.639 60.4842C353.828 61.8544 354.915 62.5158 356.38 62.1851C356.71 62.1378 356.994 61.9016 357.325 61.9016C357.561 61.9016 357.797 62.0433 358.033 62.1378C357.939 62.3741 357.892 62.7048 357.75 62.7993C356.521 63.508 355.198 63.6025 353.923 62.9883C352.789 62.4686 352.458 61.3819 352.411 60.2007C352.411 58.6416 352.978 57.4604 354.159 57.0352C356.143 56.2792 358.175 57.4131 358.27 59.6338C358.27 60.3425 358.175 60.4842 357.419 60.4842C356.38 60.4842 355.293 60.4842 354.254 60.4842C354.065 60.4842 353.876 60.4842 353.639 60.4842ZM353.639 59.492H357.136C357.041 58.4526 356.332 57.7911 355.387 57.7911C354.443 57.7911 353.734 58.4526 353.639 59.492Z" fill="#0D2237"/>
<path d="M360.632 60.4841C360.915 61.9015 362.002 62.5158 363.467 62.185C363.797 62.0905 364.081 61.9015 364.412 61.9015C364.648 61.9015 364.884 62.0433 365.073 62.1378C364.979 62.374 364.979 62.7047 364.79 62.7992C363.561 63.5079 362.286 63.6024 360.963 62.9882C359.829 62.4685 359.451 61.4291 359.451 60.2479C359.451 58.9722 359.687 57.8383 360.821 57.1768C362.522 56.1847 365.215 56.9879 365.262 59.7282C365.262 60.2479 365.073 60.4841 364.553 60.4841C363.467 60.4841 362.38 60.4841 361.293 60.4841C361.057 60.4841 360.868 60.4841 360.585 60.4841H360.632ZM364.081 59.492C364.081 58.4998 363.325 57.7911 362.38 57.7911C361.388 57.7911 360.679 58.4525 360.632 59.492H364.081Z" fill="#0D2237"/>
<path d="M342.064 57.8383C342.82 57.1769 343.481 56.7989 344.379 56.7989C345.56 56.7989 346.458 57.6021 346.505 58.8305C346.552 60.1062 346.505 61.3819 346.505 62.6103C346.505 62.9883 346.363 63.2245 345.985 63.2245C345.56 63.2245 345.371 63.0355 345.371 62.6103C345.371 61.5708 345.371 60.4842 345.371 59.4447C345.371 58.8778 345.276 58.3108 344.757 58.0273C344.19 57.6966 343.623 57.8383 343.056 58.1691C342.394 58.547 341.969 59.0195 342.064 59.87C342.158 60.7676 342.064 61.6653 342.064 62.563C342.064 62.941 341.969 63.2245 341.497 63.2245C341.024 63.2245 340.93 62.8938 340.93 62.5158C340.93 59.9644 340.93 57.4131 340.93 54.8618C340.93 54.4366 341.024 54.1531 341.497 54.1531C341.922 54.1531 342.064 54.4366 342.064 54.8618C342.064 55.8067 342.064 56.7517 342.064 57.8383Z" fill="#0D2237"/>
<path d="M375.231 56.7517C375.751 56.8462 376.318 56.9407 376.838 57.1297C377.027 57.1769 377.121 57.5549 377.263 57.7439C377.074 57.8384 376.838 58.0746 376.649 58.0746C376.223 58.0746 375.798 57.9329 375.373 57.8856C375.184 57.8856 374.995 57.8856 374.806 57.8856C374.381 57.9801 373.861 58.0746 373.861 58.6888C373.861 59.2558 374.381 59.303 374.759 59.4448C375.279 59.6337 375.798 59.7282 376.318 59.9172C377.168 60.2007 377.499 60.7677 377.499 61.5709C377.499 62.3741 376.979 62.9883 376.176 63.2245C375.09 63.508 374.003 63.4135 373.011 62.8938C372.822 62.7993 372.774 62.4686 372.68 62.2323C372.916 62.1378 373.152 61.9488 373.389 61.9961C374.003 62.0433 374.57 62.2323 375.184 62.3268C375.468 62.3268 375.751 62.2796 375.987 62.1378C376.176 62.0433 376.318 61.7599 376.318 61.5709C376.318 61.4291 376.082 61.1929 375.94 61.0984C375.373 60.9094 374.806 60.7677 374.239 60.5787C373.011 60.2007 372.585 59.6337 372.727 58.4998C372.869 57.6021 373.625 56.9879 374.759 56.9407C374.901 56.9407 375.042 56.9407 375.184 56.9407C375.184 56.9407 375.184 56.8934 375.184 56.8462L375.231 56.7517Z" fill="#0D2237"/>
<path d="M336.63 57.98L336.442 57.9328C336.158 57.8856 335.875 57.8383 335.591 57.7911C335.733 57.5548 335.875 57.2241 336.111 57.0351C336.442 56.6571 336.772 56.3264 337.15 55.9957C337.292 55.8539 337.481 55.8067 337.764 55.6649C337.764 56.1847 337.764 56.5154 337.812 56.9879C338.237 56.9879 338.615 56.9879 339.04 56.9879C339.371 56.9879 339.654 57.0351 339.654 57.4603C339.654 57.8856 339.371 57.98 339.04 57.98C338.662 57.98 338.284 57.98 337.812 57.98C337.812 59.303 337.812 60.5786 337.812 61.807C337.812 62.3268 338.331 62.374 338.757 62.3268C339.135 62.3268 339.607 62.0433 339.749 62.6102C339.891 63.2245 339.276 63.2717 338.898 63.319C337.528 63.6497 336.678 62.941 336.678 61.5236C336.678 60.3424 336.678 59.2085 336.678 58.0273L336.63 57.98Z" fill="#0D2237"/>
<path d="M371.026 61.1456C371.026 62.2795 371.026 63.4134 371.026 64.5001C371.026 65.823 369.892 66.579 368.664 66.012C368.522 65.9175 368.333 65.634 368.38 65.4923C368.428 65.3033 368.664 65.0671 368.853 65.0671C369.892 64.9726 369.892 65.0198 369.892 63.9331C369.892 61.9015 369.892 59.8699 369.892 57.791C369.892 57.6493 369.845 57.4603 369.892 57.3658C370.081 57.1768 370.318 56.9878 370.507 56.7989C370.648 56.9878 370.979 57.1768 370.979 57.3658C370.979 58.5942 370.979 59.8227 370.979 61.0511L371.026 61.1456Z" fill="#0D2237"/>
<path d="M349.576 57.5549C350.19 57.3187 350.805 57.0352 351.419 56.8462C351.749 56.7517 352.033 56.9407 352.033 57.3187C352.033 57.7439 351.797 57.8856 351.466 57.9329C351.088 58.0274 350.663 58.0746 350.332 58.2636C349.812 58.5471 349.529 58.9251 349.576 59.5865C349.623 60.5787 349.576 61.5709 349.576 62.5158C349.576 62.8938 349.482 63.2245 349.009 63.2245C348.537 63.2245 348.442 62.941 348.442 62.5631C348.442 61.0039 348.442 59.3975 348.442 57.8384C348.442 57.4604 348.348 56.9407 348.915 56.8934C349.482 56.8462 349.623 57.2714 349.576 57.5549Z" fill="#0D2237"/>
<path d="M368.097 62.4213C368.097 62.9411 367.813 63.2245 367.294 63.2245C366.774 63.2245 366.538 62.9411 366.585 62.4686C366.585 61.9961 366.868 61.7599 367.294 61.7599C367.766 61.7599 368.05 62.0434 368.097 62.4686V62.4213Z" fill="#0D2237"/>
<path d="M369.845 54.9562C369.845 54.4838 370.176 54.342 370.601 54.342C371.026 54.342 371.168 54.6255 371.168 55.0507C371.168 55.4759 370.884 55.6649 370.506 55.6649C370.081 55.6649 369.845 55.3814 369.892 54.9562H369.845Z" fill="#0D2237"/>
</g>
<g clip-path="url(#clip1_140_2523)">
<path d="M426.5 324.899C456.544 324.899 480.899 300.544 480.899 270.5C480.899 240.456 456.544 216.101 426.5 216.101C396.456 216.101 372.101 240.456 372.101 270.5C372.101 300.544 396.456 324.899 426.5 324.899Z" fill="white" stroke="#0D2237" stroke-width="3" stroke-miterlimit="10"/>
<path d="M420.098 263.49L417.776 273.607L414.957 263.49H412.856L410.037 273.607L407.659 263.49H405.448L408.931 276.703H410.976L413.906 266.365L416.781 276.703H418.882L422.42 263.49H420.098Z" fill="#343434"/>
<path d="M463.496 275.321H462.998V276.537H462.556V275.321H462.114V274.934H463.496V275.321Z" fill="#343434"/>
<path d="M463.662 274.934H464.27L464.546 276.04L464.823 274.934H465.431V276.537H465.044V275.321L464.712 276.537H464.38L464.049 275.321V276.537H463.662V274.934Z" fill="#343434"/>
<path d="M447.132 276.482C446.579 276.703 445.971 276.869 445.418 276.869C444.478 276.869 443.649 276.703 442.93 276.371C442.212 276.039 441.548 275.597 441.051 275.044C440.553 274.491 440.111 273.773 439.89 273.054C439.613 272.28 439.447 271.451 439.503 270.566C439.503 269.682 439.613 268.852 439.89 268.023C440.111 267.304 440.553 266.586 441.051 265.978C441.548 265.37 442.212 264.927 442.93 264.596C443.649 264.264 444.478 264.098 445.418 264.098C446.026 264.098 446.634 264.209 447.187 264.374C447.74 264.54 448.293 264.817 448.79 265.204C449.786 265.978 450.394 267.139 450.504 268.355H447.961C447.795 267.691 447.519 267.194 447.021 266.807C446.579 266.475 446.026 266.309 445.363 266.309C444.755 266.309 444.257 266.42 443.815 266.641C443.428 266.862 443.041 267.194 442.82 267.581C442.543 267.968 442.378 268.465 442.267 268.908C442.156 269.405 442.101 269.958 442.101 270.456C442.101 270.953 442.156 271.451 442.267 271.948C442.378 272.391 442.599 272.833 442.82 273.22C443.096 273.607 443.428 273.939 443.815 274.16C444.257 274.381 444.755 274.491 445.363 274.491C446.247 274.491 446.911 274.27 447.408 273.828C447.906 273.386 448.182 272.722 448.238 271.893H445.584V269.903H450.67V276.426H448.956L448.68 275.044C448.182 275.708 447.685 276.095 447.077 276.371L447.132 276.482Z" fill="#343434"/>
<path d="M454.982 264.43V274.271H460.898V276.537H452.329V264.43H454.982Z" fill="#343434"/>
<path d="M442.433 278.03C438.397 280.517 432.261 281.9 425.516 281.9C413.298 281.9 403.347 276.813 403.347 270.511C403.347 264.209 413.243 259.123 425.516 259.123C432.316 259.123 438.452 260.56 442.488 263.048C438.065 258.901 430.105 255.971 421.038 255.971C407.107 255.971 395.829 262.495 395.829 270.511C395.829 278.527 407.107 285.051 421.038 285.051C430.105 285.051 438.01 282.176 442.488 278.03H442.433Z" fill="#343434"/>
<path d="M428.28 269.074C427.948 268.631 427.561 268.3 427.064 268.023C426.511 267.802 425.958 267.636 425.405 267.636C424.686 267.636 424.023 267.747 423.526 268.023C423.028 268.244 422.53 268.631 422.199 269.074C421.535 269.903 421.204 271.119 421.204 272.501C421.204 273.109 421.314 273.662 421.48 274.215C421.646 274.712 421.922 275.21 422.254 275.597C422.973 276.426 423.968 276.869 425.184 276.869C425.792 276.869 426.345 276.813 426.787 276.647C427.064 276.537 427.34 276.426 427.617 276.26C427.893 276.095 428.114 275.873 428.335 275.652C428.501 275.431 428.667 275.21 428.833 274.989C429.054 274.547 429.22 274.104 429.22 273.883V273.717H427.506V273.828C427.451 274.381 426.732 275.376 425.405 275.376C423.526 275.376 423.083 273.994 423.083 272.833H429.33V272.722C429.33 272.004 429.275 271.34 429.109 270.621C428.943 270.069 428.667 269.516 428.391 269.018L428.28 269.074ZM425.184 269.184C426.566 269.184 427.285 269.903 427.451 271.451H422.973C423.028 270.235 424.023 269.184 425.184 269.184Z" fill="#343434"/>
<path d="M437.9 270.29C437.734 269.792 437.513 269.294 437.181 268.907C436.849 268.521 436.462 268.189 436.02 267.968C435.522 267.747 434.97 267.636 434.417 267.636C433.919 267.636 433.422 267.747 432.979 267.968C432.592 268.134 432.316 268.41 432.039 268.742V264.706H430.326V276.647H431.929V275.818C431.929 275.818 432.316 276.205 432.482 276.371C432.924 276.703 433.532 276.868 434.196 276.868C434.914 276.868 435.578 276.703 436.075 276.371C436.573 276.094 437.015 275.652 437.291 275.155C437.623 274.657 437.789 274.104 437.955 273.551C438.065 272.998 438.121 272.446 438.121 271.893C438.121 271.34 438.065 270.787 437.844 270.234L437.9 270.29ZM436.352 272.28C436.352 273.22 436.186 273.994 435.799 274.546C435.412 275.155 434.859 275.431 434.14 275.431C433.09 275.431 431.929 274.712 431.929 272.722C431.929 271.727 432.039 271.008 432.316 270.455C432.703 269.626 433.256 269.239 434.14 269.239C435.08 269.239 435.688 269.626 436.02 270.345C436.296 270.953 436.352 271.727 436.352 272.28Z" fill="#343434"/>
</g>
<g clip-path="url(#clip2_140_2523)">
<path d="M343.5 539.899C373.544 539.899 397.899 515.544 397.899 485.5C397.899 455.456 373.544 431.101 343.5 431.101C313.456 431.101 289.101 455.456 289.101 485.5C289.101 515.544 313.456 539.899 343.5 539.899Z" fill="white" stroke="#0D2237" stroke-width="3" stroke-miterlimit="10"/>
<path d="M312.829 489.974V478.107H317.511C318.411 478.107 319.177 478.278 319.811 478.622C320.444 478.962 320.927 479.435 321.26 480.042C321.596 480.645 321.764 481.34 321.764 482.128C321.764 482.916 321.594 483.611 321.254 484.214C320.914 484.816 320.421 485.286 319.776 485.622C319.135 485.958 318.358 486.126 317.447 486.126H314.463V484.115H317.041C317.524 484.115 317.922 484.032 318.235 483.866C318.552 483.696 318.787 483.463 318.942 483.165C319.1 482.864 319.179 482.518 319.179 482.128C319.179 481.734 319.1 481.39 318.942 481.096C318.787 480.799 318.552 480.569 318.235 480.407C317.918 480.241 317.516 480.158 317.03 480.158H315.338V489.974H312.829Z" fill="#0D2237"/>
<path d="M323.347 489.974V481.073H325.74V482.626H325.833C325.995 482.074 326.267 481.657 326.65 481.375C327.032 481.089 327.473 480.946 327.971 480.946C328.095 480.946 328.228 480.954 328.371 480.969C328.514 480.984 328.639 481.006 328.747 481.033V483.223C328.631 483.188 328.471 483.157 328.266 483.13C328.062 483.103 327.874 483.09 327.704 483.09C327.341 483.09 327.017 483.169 326.731 483.327C326.449 483.482 326.225 483.698 326.059 483.976C325.897 484.254 325.815 484.575 325.815 484.938V489.974H323.347Z" fill="#0D2237"/>
<path d="M333.631 490.147C332.731 490.147 331.952 489.956 331.295 489.574C330.643 489.187 330.139 488.65 329.783 487.963C329.428 487.271 329.25 486.47 329.25 485.558C329.25 484.639 329.428 483.835 329.783 483.148C330.139 482.456 330.643 481.919 331.295 481.537C331.952 481.151 332.731 480.957 333.631 480.957C334.531 480.957 335.307 481.151 335.96 481.537C336.617 481.919 337.123 482.456 337.478 483.148C337.834 483.835 338.011 484.639 338.011 485.558C338.011 486.47 337.834 487.271 337.478 487.963C337.123 488.65 336.617 489.187 335.96 489.574C335.307 489.956 334.531 490.147 333.631 490.147ZM333.642 488.235C334.052 488.235 334.394 488.119 334.668 487.888C334.942 487.652 335.149 487.331 335.288 486.926C335.431 486.52 335.502 486.058 335.502 485.541C335.502 485.023 335.431 484.562 335.288 484.156C335.149 483.75 334.942 483.43 334.668 483.194C334.394 482.958 334.052 482.841 333.642 482.841C333.229 482.841 332.881 482.958 332.599 483.194C332.321 483.43 332.111 483.75 331.968 484.156C331.829 484.562 331.759 485.023 331.759 485.541C331.759 486.058 331.829 486.52 331.968 486.926C332.111 487.331 332.321 487.652 332.599 487.888C332.881 488.119 333.229 488.235 333.642 488.235Z" fill="#0D2237"/>
<path d="M339.616 481.073H342.085V490.414C342.085 491.102 341.95 491.658 341.679 492.083C341.409 492.508 341.02 492.819 340.514 493.016C340.012 493.213 339.412 493.311 338.712 493.311C338.627 493.311 338.546 493.309 338.469 493.305C338.388 493.305 338.303 493.303 338.214 493.3V491.37C338.28 491.374 338.338 491.376 338.388 491.376C338.434 491.38 338.484 491.382 338.539 491.382C338.936 491.382 339.215 491.297 339.373 491.127C339.535 490.961 339.616 490.709 339.616 490.373V481.073ZM340.845 479.926C340.482 479.926 340.169 479.804 339.906 479.561C339.643 479.314 339.512 479.018 339.512 478.674C339.512 478.334 339.643 478.043 339.906 477.799C340.169 477.552 340.482 477.429 340.845 477.429C341.216 477.429 341.53 477.552 341.789 477.799C342.052 478.043 342.183 478.334 342.183 478.674C342.183 479.018 342.052 479.314 341.789 479.561C341.53 479.804 341.216 479.926 340.845 479.926Z" fill="#0D2237"/>
<path d="M343.859 487.888V485.912L348.813 478.107H350.517V480.842H349.509L346.386 485.784V485.877H353.426V487.888H343.859ZM349.555 489.974V487.285L349.602 486.41V478.107H351.954V489.974H349.555Z" fill="#0D2237"/>
<path d="M359.919 478.107H362.399V486.381C362.399 487.146 362.227 487.81 361.883 488.374C361.543 488.938 361.07 489.373 360.463 489.678C359.857 489.983 359.152 490.136 358.348 490.136C357.634 490.136 356.985 490.01 356.401 489.759C355.822 489.504 355.362 489.118 355.022 488.6C354.682 488.079 354.514 487.424 354.518 486.636H357.016C357.023 486.949 357.087 487.217 357.207 487.441C357.33 487.662 357.498 487.832 357.711 487.951C357.927 488.067 358.182 488.125 358.476 488.125C358.785 488.125 359.046 488.059 359.258 487.928C359.474 487.793 359.638 487.596 359.75 487.337C359.863 487.078 359.919 486.76 359.919 486.381V478.107Z" fill="#0D2237"/>
<path d="M370.911 481.519C370.864 481.052 370.665 480.689 370.314 480.43C369.962 480.171 369.485 480.042 368.883 480.042C368.473 480.042 368.127 480.1 367.845 480.216C367.563 480.328 367.347 480.484 367.196 480.685C367.05 480.886 366.976 481.114 366.976 481.369C366.968 481.581 367.013 481.767 367.109 481.925C367.21 482.083 367.347 482.221 367.521 482.336C367.695 482.449 367.896 482.547 368.123 482.632C368.351 482.713 368.595 482.783 368.854 482.841L369.92 483.096C370.437 483.211 370.913 483.366 371.345 483.559C371.778 483.752 372.153 483.99 372.469 484.272C372.786 484.554 373.031 484.886 373.205 485.268C373.383 485.651 373.474 486.089 373.478 486.584C373.474 487.31 373.288 487.94 372.921 488.473C372.558 489.002 372.033 489.413 371.345 489.707C370.661 489.997 369.837 490.142 368.871 490.142C367.913 490.142 367.079 489.995 366.368 489.701C365.661 489.408 365.108 488.973 364.711 488.397C364.317 487.818 364.11 487.101 364.091 486.248H366.518C366.545 486.646 366.659 486.978 366.86 487.244C367.065 487.507 367.337 487.706 367.677 487.841C368.021 487.973 368.409 488.038 368.842 488.038C369.267 488.038 369.636 487.976 369.949 487.853C370.265 487.729 370.511 487.557 370.685 487.337C370.858 487.117 370.945 486.864 370.945 486.578C370.945 486.311 370.866 486.087 370.708 485.906C370.553 485.724 370.325 485.57 370.024 485.442C369.727 485.315 369.362 485.199 368.929 485.095L367.637 484.77C366.636 484.527 365.846 484.146 365.267 483.629C364.687 483.111 364.4 482.414 364.403 481.537C364.4 480.818 364.591 480.191 364.977 479.654C365.367 479.117 365.902 478.698 366.582 478.396C367.262 478.095 368.035 477.944 368.9 477.944C369.781 477.944 370.549 478.095 371.206 478.396C371.867 478.698 372.38 479.117 372.747 479.654C373.114 480.191 373.304 480.813 373.315 481.519H370.911Z" fill="#0D2237"/>
</g>
<defs>
<linearGradient id="paint0_linear_140_2523" x1="20" y1="179" x2="196" y2="346" gradientUnits="userSpaceOnUse">
<stop stop-color="#AFEBD1"/>
<stop offset="0.895" stop-color="#0D2237"/>
</linearGradient>
<clipPath id="clip0_140_2523">
<rect width="113" height="113" fill="white" transform="translate(287)"/>
</clipPath>
<clipPath id="clip1_140_2523">
<rect width="113" height="113" fill="white" transform="translate(370 214)"/>
</clipPath>
<clipPath id="clip2_140_2523">
<rect width="113" height="113" fill="white" transform="translate(287 429)"/>
</clipPath>
</defs>
</svg>
