<svg width="40" height="30" viewBox="0 0 40 30" fill="none" xmlns="http://www.w3.org/2000/svg">
  <path fill-rule="evenodd" clip-rule="evenodd" d="M16.9404 2.91184C17.2368 2.80045 17.58 2.78193 17.8946 2.86035C18.2092 2.93876 18.4694 3.10768 18.6179 3.32996L26.1179 14.58C26.205 14.7103 26.2504 14.8541 26.2504 15C26.2504 15.1458 26.205 15.2896 26.1179 15.42L18.6179 26.67C18.5452 26.781 18.4438 26.8801 18.3197 26.9617C18.1956 27.0432 18.0513 27.1055 17.8949 27.145C17.7386 27.1844 17.5733 27.2003 17.4088 27.1917C17.2442 27.183 17.0836 27.15 16.9361 27.0946C16.7886 27.0392 16.6572 26.9624 16.5495 26.8687C16.4417 26.775 16.3598 26.6662 16.3084 26.5487C16.2569 26.4311 16.2371 26.3071 16.2499 26.1837C16.2627 26.0604 16.3079 25.9401 16.3829 25.83L23.6004 15L16.3829 4.16996C16.2344 3.94768 16.2097 3.69025 16.3143 3.45431C16.4188 3.21837 16.6441 3.02323 16.9404 2.91184Z" fill="black"/>
</svg>
