<svg width="20" height="20" viewBox="0 0 20 20" fill="none" xmlns="http://www.w3.org/2000/svg">
  <path fill-rule="evenodd" clip-rule="evenodd" d="M2.0575 5.8075C2.11556 5.7493 2.18453 5.70312 2.26046 5.67161C2.33639 5.6401 2.41779 5.62389 2.5 5.62389C2.58221 5.62389 2.66361 5.6401 2.73955 5.67161C2.81548 5.70312 2.88445 5.7493 2.9425 5.8075L10 12.8663L17.0575 5.8075C17.1156 5.74939 17.1846 5.7033 17.2605 5.67185C17.3364 5.6404 17.4178 5.62421 17.5 5.62421C17.5822 5.62421 17.6636 5.6404 17.7395 5.67185C17.8154 5.7033 17.8844 5.74939 17.9425 5.8075C18.0006 5.86561 18.0467 5.9346 18.0782 6.01052C18.1096 6.08645 18.1258 6.16782 18.1258 6.25C18.1258 6.33218 18.1096 6.41356 18.0782 6.48948C18.0467 6.56541 18.0006 6.63439 17.9425 6.6925L10.4425 14.1925C10.3844 14.2507 10.3155 14.2969 10.2395 14.3284C10.1636 14.3599 10.0822 14.3761 10 14.3761C9.9178 14.3761 9.83639 14.3599 9.76046 14.3284C9.68453 14.2969 9.61556 14.2507 9.5575 14.1925L2.0575 6.6925C1.9993 6.63445 1.95312 6.56548 1.92161 6.48955C1.8901 6.41361 1.87389 6.33221 1.87389 6.25C1.87389 6.16779 1.8901 6.08639 1.92161 6.01046C1.95312 5.93453 1.9993 5.86556 2.0575 5.8075Z" fill="black"/>
</svg>
