<svg width="40" height="30" viewBox="0 0 40 30" fill="none" xmlns="http://www.w3.org/2000/svg">
  <path fill-rule="evenodd" clip-rule="evenodd" d="M23.0604 2.91182C23.3561 3.02322 23.5809 3.21802 23.6854 3.45352C23.7899 3.68901 23.7656 3.94598 23.6179 4.16807L16.4004 14.9999L23.6204 25.8299C23.6954 25.9401 23.7407 26.0604 23.7535 26.1837C23.7663 26.3071 23.7464 26.4311 23.695 26.5487C23.6435 26.6662 23.5616 26.775 23.4539 26.8687C23.3461 26.9624 23.2147 27.0392 23.0672 27.0946C22.9198 27.15 22.7591 27.183 22.5945 27.1916C22.43 27.2003 22.2648 27.1844 22.1084 27.1449C21.9521 27.1055 21.8077 27.0432 21.6836 26.9616C21.5595 26.8801 21.4582 26.781 21.3854 26.6699L13.8854 15.4199C13.7983 15.2896 13.7529 15.1458 13.7529 14.9999C13.7529 14.8541 13.7983 14.7103 13.8854 14.5799L21.3854 3.32995C21.5339 3.10816 21.7937 2.93959 22.1077 2.86121C22.4216 2.78283 22.7643 2.80103 23.0604 2.91182Z" fill="black"/>
</svg>
