<svg width="20" height="20" viewBox="0 0 20 20" fill="none" xmlns="http://www.w3.org/2000/svg">
  <path fill-rule="evenodd" clip-rule="evenodd" d="M17.9425 14.1925C17.8844 14.2507 17.8155 14.2969 17.7395 14.3284C17.6636 14.3599 17.5822 14.3761 17.5 14.3761C17.4178 14.3761 17.3364 14.3599 17.2604 14.3284C17.1845 14.2969 17.1155 14.2507 17.0575 14.1925L9.99998 7.13375L2.94248 14.1925C2.88437 14.2506 2.81538 14.2967 2.73946 14.3282C2.66354 14.3596 2.58216 14.3758 2.49998 14.3758C2.4178 14.3758 2.33642 14.3596 2.2605 14.3282C2.18458 14.2967 2.11559 14.2506 2.05748 14.1925C1.99937 14.1344 1.95327 14.0654 1.92183 13.9895C1.89038 13.9136 1.87419 13.8322 1.87419 13.75C1.87419 13.6678 1.89038 13.5864 1.92183 13.5105C1.95327 13.4346 1.99937 13.3656 2.05748 13.3075L9.55748 5.8075C9.61554 5.74929 9.68451 5.70312 9.76044 5.67161C9.83637 5.6401 9.91777 5.62388 9.99998 5.62388C10.0822 5.62388 10.1636 5.6401 10.2395 5.67161C10.3155 5.70312 10.3844 5.74929 10.4425 5.8075L17.9425 13.3075C18.0007 13.3656 18.0469 13.4345 18.0784 13.5105C18.1099 13.5864 18.1261 13.6678 18.1261 13.75C18.1261 13.8322 18.1099 13.9136 18.0784 13.9895C18.0469 14.0655 18.0007 14.1344 17.9425 14.1925Z" fill="black"/>
</svg>
