<svg width="30" height="30" viewBox="0 0 30 30" fill="none" xmlns="http://www.w3.org/2000/svg">
  <g clip-path="url(#clip0_500_81)">
    <path d="M15 28.125C11.519 28.125 8.18064 26.7422 5.71922 24.2808C3.25781 21.8194 1.875 18.481 1.875 15C1.875 11.519 3.25781 8.18064 5.71922 5.71922C8.18064 3.25781 11.519 1.875 15 1.875C18.481 1.875 21.8194 3.25781 24.2808 5.71922C26.7422 8.18064 28.125 11.519 28.125 15C28.125 18.481 26.7422 21.8194 24.2808 24.2808C21.8194 26.7422 18.481 28.125 15 28.125ZM15 30C18.9782 30 22.7936 28.4196 25.6066 25.6066C28.4196 22.7936 30 18.9782 30 15C30 11.0218 28.4196 7.20644 25.6066 4.3934C22.7936 1.58035 18.9782 0 15 0C11.0218 0 7.20644 1.58035 4.3934 4.3934C1.58035 7.20644 0 11.0218 0 15C0 18.9782 1.58035 22.7936 4.3934 25.6066C7.20644 28.4196 11.0218 30 15 30Z" fill="#E0EAF4"/>
    <path d="M8.71097 8.71122C8.79806 8.62391 8.90151 8.55464 9.01541 8.50738C9.12931 8.46012 9.25141 8.43579 9.37472 8.43579C9.49804 8.43579 9.62014 8.46012 9.73404 8.50738C9.84793 8.55464 9.95139 8.62391 10.0385 8.71122L14.9997 13.6743L19.961 8.71122C20.0481 8.62405 20.1516 8.55491 20.2655 8.50774C20.3794 8.46056 20.5015 8.43628 20.6247 8.43628C20.748 8.43628 20.8701 8.46056 20.9839 8.50774C21.0978 8.55491 21.2013 8.62405 21.2885 8.71122C21.3756 8.79838 21.4448 8.90186 21.492 9.01575C21.5391 9.12963 21.5634 9.2517 21.5634 9.37497C21.5634 9.49824 21.5391 9.6203 21.492 9.73419C21.4448 9.84807 21.3756 9.95155 21.2885 10.0387L16.3253 15L21.2885 19.9612C21.3756 20.0484 21.4448 20.1519 21.492 20.2657C21.5391 20.3796 21.5634 20.5017 21.5634 20.625C21.5634 20.7482 21.5391 20.8703 21.492 20.9842C21.4448 21.0981 21.3756 21.2016 21.2885 21.2887C21.2013 21.3759 21.0978 21.445 20.9839 21.4922C20.8701 21.5394 20.748 21.5637 20.6247 21.5637C20.5015 21.5637 20.3794 21.5394 20.2655 21.4922C20.1516 21.445 20.0481 21.3759 19.961 21.2887L14.9997 16.3256L10.0385 21.2887C9.95131 21.3759 9.84783 21.445 9.73394 21.4922C9.62006 21.5394 9.49799 21.5637 9.37472 21.5637C9.25145 21.5637 9.12939 21.5394 9.0155 21.4922C8.90162 21.445 8.79814 21.3759 8.71097 21.2887C8.62381 21.2016 8.55466 21.0981 8.50749 20.9842C8.46032 20.8703 8.43604 20.7482 8.43604 20.625C8.43604 20.5017 8.46032 20.3796 8.50749 20.2657C8.55466 20.1519 8.62381 20.0484 8.71097 19.9612L13.6741 15L8.71097 10.0387C8.62367 9.95163 8.5544 9.84818 8.50714 9.73428C8.45987 9.62038 8.43555 9.49828 8.43555 9.37497C8.43555 9.25165 8.45987 9.12955 8.50714 9.01565C8.5544 8.90176 8.62367 8.7983 8.71097 8.71122Z" fill="#E0EAF4"/>
  </g>
  <defs>
    <clipPath id="clip0_500_81">
      <rect width="30" height="30" fill="white"/>
    </clipPath>
  </defs>
</svg>
