<svg width="33" height="33" viewBox="0 0 33 33" fill="none" xmlns="http://www.w3.org/2000/svg">
<path d="M28.7667 29.8333C29.1401 29.8333 29.3268 29.8333 29.4694 29.7606C29.5949 29.6967 29.6968 29.5947 29.7608 29.4693C29.8334 29.3267 29.8334 29.14 29.8334 28.7666V14.9C29.8334 14.5266 29.8334 14.3399 29.7608 14.1973C29.6968 14.0719 29.5949 13.9699 29.4694 13.906C29.3268 13.8333 29.1401 13.8333 28.7667 13.8333L25.5667 13.8333C25.1934 13.8333 25.0067 13.8333 24.8641 13.906C24.7386 13.9699 24.6367 14.0719 24.5727 14.1973C24.5001 14.3399 24.5001 14.5266 24.5001 14.9V18.1C24.5001 18.4733 24.5001 18.66 24.4274 18.8026C24.3635 18.9281 24.2615 19.03 24.1361 19.094C23.9935 19.1666 23.8068 19.1666 23.4334 19.1666H20.2334C19.86 19.1666 19.6734 19.1666 19.5308 19.2393C19.4053 19.3032 19.3033 19.4052 19.2394 19.5306C19.1667 19.6732 19.1667 19.8599 19.1667 20.2333V23.4333C19.1667 23.8067 19.1667 23.9933 19.0941 24.136C19.0302 24.2614 18.9282 24.3634 18.8027 24.4273C18.6601 24.5 18.4734 24.5 18.1001 24.5H14.9001C14.5267 24.5 14.34 24.5 14.1974 24.5726C14.072 24.6365 13.97 24.7385 13.9061 24.864C13.8334 25.0066 13.8334 25.1933 13.8334 25.5666V28.7666C13.8334 29.14 13.8334 29.3267 13.9061 29.4693C13.97 29.5947 14.072 29.6967 14.1974 29.7606C14.34 29.8333 14.5267 29.8333 14.9001 29.8333L28.7667 29.8333Z" stroke="black" stroke-width="2" stroke-linecap="round" stroke-linejoin="round"/>
<path d="M13.8334 9.56663C13.8334 9.19326 13.8334 9.00657 13.9061 8.86397C13.97 8.73852 14.072 8.63654 14.1974 8.57262C14.34 8.49996 14.5267 8.49996 14.9001 8.49996H18.1001C18.4734 8.49996 18.6601 8.49996 18.8027 8.57262C18.9282 8.63654 19.0302 8.73852 19.0941 8.86397C19.1667 9.00657 19.1667 9.19326 19.1667 9.56663V12.7666C19.1667 13.14 19.1667 13.3267 19.0941 13.4693C19.0302 13.5947 18.9282 13.6967 18.8027 13.7606C18.6601 13.8333 18.4734 13.8333 18.1001 13.8333H14.9001C14.5267 13.8333 14.34 13.8333 14.1974 13.7606C14.072 13.6967 13.97 13.5947 13.9061 13.4693C13.8334 13.3267 13.8334 13.14 13.8334 12.7666V9.56663Z" stroke="black" stroke-width="2" stroke-linecap="round" stroke-linejoin="round"/>
<path d="M4.50008 17.5666C4.50008 17.1933 4.50008 17.0066 4.57274 16.864C4.63666 16.7385 4.73865 16.6365 4.86409 16.5726C5.0067 16.5 5.19338 16.5 5.56675 16.5H8.76675C9.14012 16.5 9.3268 16.5 9.46941 16.5726C9.59485 16.6365 9.69684 16.7385 9.76075 16.864C9.83341 17.0066 9.83341 17.1933 9.83341 17.5666V20.7666C9.83341 21.14 9.83341 21.3267 9.76075 21.4693C9.69684 21.5947 9.59485 21.6967 9.46941 21.7606C9.3268 21.8333 9.14012 21.8333 8.76675 21.8333H5.56675C5.19338 21.8333 5.0067 21.8333 4.86409 21.7606C4.73865 21.6967 4.63666 21.5947 4.57274 21.4693C4.50008 21.3267 4.50008 21.14 4.50008 20.7666V17.5666Z" stroke="black" stroke-width="2" stroke-linecap="round" stroke-linejoin="round"/>
<path d="M3.16675 4.23329C3.16675 3.85992 3.16675 3.67324 3.23941 3.53063C3.30333 3.40519 3.40531 3.3032 3.53075 3.23929C3.67336 3.16663 3.86005 3.16663 4.23341 3.16663H7.43341C7.80678 3.16663 7.99347 3.16663 8.13608 3.23929C8.26152 3.3032 8.3635 3.40519 8.42742 3.53063C8.50008 3.67324 8.50008 3.85992 8.50008 4.23329V7.43329C8.50008 7.80666 8.50008 7.99335 8.42742 8.13595C8.3635 8.26139 8.26152 8.36338 8.13608 8.4273C7.99347 8.49996 7.80678 8.49996 7.43341 8.49996H4.23341C3.86005 8.49996 3.67336 8.49996 3.53075 8.4273C3.40531 8.36338 3.30333 8.26139 3.23941 8.13595C3.16675 7.99335 3.16675 7.80666 3.16675 7.43329V4.23329Z" stroke="black" stroke-width="2" stroke-linecap="round" stroke-linejoin="round"/>
</svg>
