<svg width="30" height="30" viewBox="0 0 30 30" fill="none" xmlns="http://www.w3.org/2000/svg">
  <g clip-path="url(#clip0_497_2375)">
    <path fill-rule="evenodd" clip-rule="evenodd" d="M16.1925 6.5625C16.1925 6.31386 16.0937 6.0754 15.9179 5.89959C15.7421 5.72377 15.5036 5.625 15.255 5.625H2.8125C2.06658 5.625 1.35121 5.92132 0.823762 6.44876C0.296316 6.97621 0 7.69158 0 8.4375L0 27.1875C0 27.9334 0.296316 28.6488 0.823762 29.1762C1.35121 29.7037 2.06658 30 2.8125 30H21.5625C22.3084 30 23.0238 29.7037 23.5512 29.1762C24.0787 28.6488 24.375 27.9334 24.375 27.1875V14.745C24.375 14.4964 24.2762 14.2579 24.1004 14.0821C23.9246 13.9063 23.6861 13.8075 23.4375 13.8075C23.1889 13.8075 22.9504 13.9063 22.7746 14.0821C22.5988 14.2579 22.5 14.4964 22.5 14.745V27.1875C22.5 27.4361 22.4012 27.6746 22.2254 27.8504C22.0496 28.0262 21.8111 28.125 21.5625 28.125H2.8125C2.56386 28.125 2.3254 28.0262 2.14959 27.8504C1.97377 27.6746 1.875 27.4361 1.875 27.1875V8.4375C1.875 8.18886 1.97377 7.9504 2.14959 7.77459C2.3254 7.59877 2.56386 7.5 2.8125 7.5H15.255C15.5036 7.5 15.7421 7.40123 15.9179 7.22541C16.0937 7.0496 16.1925 6.81114 16.1925 6.5625Z" fill="black"/>
    <path fill-rule="evenodd" clip-rule="evenodd" d="M30 0.9375C30 0.688859 29.9012 0.450403 29.7254 0.274587C29.5496 0.098772 29.3111 0 29.0625 0L19.6875 0C19.4389 0 19.2004 0.098772 19.0246 0.274587C18.8488 0.450403 18.75 0.688859 18.75 0.9375C18.75 1.18614 18.8488 1.4246 19.0246 1.60041C19.2004 1.77623 19.4389 1.875 19.6875 1.875H26.7994L11.5237 17.1487C11.4366 17.2359 11.3674 17.3394 11.3203 17.4533C11.2731 17.5672 11.2488 17.6892 11.2488 17.8125C11.2488 17.9358 11.2731 18.0578 11.3203 18.1717C11.3674 18.2856 11.4366 18.3891 11.5237 18.4762C11.6109 18.5634 11.7144 18.6326 11.8283 18.6797C11.9422 18.7269 12.0642 18.7512 12.1875 18.7512C12.3108 18.7512 12.4328 18.7269 12.5467 18.6797C12.6606 18.6326 12.7641 18.5634 12.8512 18.4762L28.125 3.20062V10.3125C28.125 10.5611 28.2238 10.7996 28.3996 10.9754C28.5754 11.1512 28.8139 11.25 29.0625 11.25C29.3111 11.25 29.5496 11.1512 29.7254 10.9754C29.9012 10.7996 30 10.5611 30 10.3125V0.9375Z" fill="black"/>
  </g>
  <defs>
    <clipPath id="clip0_497_2375">
      <rect width="30" height="30" fill="white"/>
    </clipPath>
  </defs>
</svg>
