<svg width="30" height="30" viewBox="0 0 30 30" fill="none" xmlns="http://www.w3.org/2000/svg">
  <path d="M30 15C30 15 24.375 4.6875 15 4.6875C5.625 4.6875 0 15 0 15C0 15 5.625 25.3125 15 25.3125C24.375 25.3125 30 15 30 15ZM2.19937 15C3.10459 13.6211 4.14744 12.3376 5.31187 11.1694C7.725 8.7525 11.025 6.5625 15 6.5625C18.975 6.5625 22.2731 8.7525 24.69 11.1694C25.8544 12.3376 26.8973 13.6211 27.8025 15C27.695 15.1625 27.5731 15.3425 27.4369 15.54C26.8088 16.44 25.8806 17.64 24.69 18.8306C22.2731 21.2475 18.9731 23.4375 15 23.4375C11.0269 23.4375 7.72688 21.2475 5.31 18.8306C4.14556 17.6624 3.10459 16.3789 2.19937 15Z" fill="black"/>
  <path d="M15 10.3125C13.7568 10.3125 12.5645 10.8064 11.6854 11.6854C10.8064 12.5645 10.3125 13.7568 10.3125 15C10.3125 16.2432 10.8064 17.4355 11.6854 18.3146C12.5645 19.1936 13.7568 19.6875 15 19.6875C16.2432 19.6875 17.4355 19.1936 18.3146 18.3146C19.1936 17.4355 19.6875 16.2432 19.6875 15C19.6875 13.7568 19.1936 12.5645 18.3146 11.6854C17.4355 10.8064 16.2432 10.3125 15 10.3125ZM8.4375 15C8.4375 13.2595 9.1289 11.5903 10.3596 10.3596C11.5903 9.1289 13.2595 8.4375 15 8.4375C16.7405 8.4375 18.4097 9.1289 19.6404 10.3596C20.8711 11.5903 21.5625 13.2595 21.5625 15C21.5625 16.7405 20.8711 18.4097 19.6404 19.6404C18.4097 20.8711 16.7405 21.5625 15 21.5625C13.2595 21.5625 11.5903 20.8711 10.3596 19.6404C9.1289 18.4097 8.4375 16.7405 8.4375 15Z" fill="black"/>
</svg>
