<svg width="20" height="21" viewBox="0 0 20 21" fill="none" xmlns="http://www.w3.org/2000/svg">
<path d="M7.57501 8.06876C7.77093 7.51182 8.15763 7.04218 8.66663 6.74304C9.17564 6.44389 9.77409 6.33454 10.356 6.43435C10.9379 6.53417 11.4657 6.8367 11.8459 7.28837C12.2261 7.74004 12.4342 8.3117 12.4333 8.90209C12.4333 10.5688 9.93334 11.4021 9.93334 11.4021M10 14.7354H10.0083M18.3333 10.5688C18.3333 15.1711 14.6024 18.9021 10 18.9021C5.39763 18.9021 1.66667 15.1711 1.66667 10.5688C1.66667 5.96639 5.39763 2.23543 10 2.23543C14.6024 2.23543 18.3333 5.96639 18.3333 10.5688Z" stroke="black" stroke-width="2" stroke-linecap="round" stroke-linejoin="round"/>
</svg>
