<svg width="33" height="32" viewBox="0 0 33 32" fill="none" xmlns="http://www.w3.org/2000/svg">
<path d="M3.16675 16L16.0231 22.4282C16.198 22.5156 16.2854 22.5593 16.3771 22.5765C16.4584 22.5918 16.5418 22.5918 16.623 22.5765C16.7147 22.5593 16.8022 22.5156 16.9771 22.4282L29.8334 16M3.16675 22.6667L16.0231 29.0948C16.198 29.1823 16.2854 29.226 16.3771 29.2432C16.4584 29.2585 16.5418 29.2585 16.623 29.2432C16.7147 29.226 16.8022 29.1823 16.9771 29.0948L29.8334 22.6667M3.16675 9.33334L16.0231 2.90519C16.198 2.81773 16.2854 2.774 16.3771 2.75679C16.4584 2.74155 16.5418 2.74155 16.623 2.75679C16.7147 2.774 16.8022 2.81773 16.9771 2.90519L29.8334 9.33334L16.9771 15.7615C16.8022 15.8489 16.7147 15.8927 16.623 15.9099C16.5418 15.9251 16.4584 15.9251 16.3771 15.9099C16.2854 15.8927 16.198 15.8489 16.0231 15.7615L3.16675 9.33334Z" stroke="black" stroke-width="2" stroke-linecap="round" stroke-linejoin="round"/>
</svg>
