<svg width="33" height="32" viewBox="0 0 33 32" fill="none" xmlns="http://www.w3.org/2000/svg">
<path d="M10.5958 28C12.3756 27.1464 14.38 26.6667 16.5001 26.6667C18.6201 26.6667 20.6246 27.1464 22.4043 28M9.56675 22.6667H23.4334C25.6736 22.6667 26.7937 22.6667 27.6494 22.2307C28.402 21.8472 29.0139 21.2353 29.3974 20.4826C29.8334 19.627 29.8334 18.5069 29.8334 16.2667V10.4C29.8334 8.15979 29.8334 7.03969 29.3974 6.18404C29.0139 5.43139 28.402 4.81947 27.6494 4.43597C26.7937 4 25.6736 4 23.4334 4H9.56675C7.32654 4 6.20643 4 5.35079 4.43597C4.59814 4.81947 3.98622 5.43139 3.60272 6.18404C3.16675 7.03969 3.16675 8.15979 3.16675 10.4V16.2667C3.16675 18.5069 3.16675 19.627 3.60272 20.4826C3.98622 21.2353 4.59814 21.8472 5.35079 22.2307C6.20643 22.6667 7.32654 22.6667 9.56675 22.6667Z" stroke="black" stroke-width="2" stroke-linecap="round" stroke-linejoin="round"/>
</svg>
