<svg width="30" height="30" viewBox="0 0 30 30" fill="none" xmlns="http://www.w3.org/2000/svg">
  <g clip-path="url(#clip0_284_258)">
    <path d="M8.44125 16.875C9.18717 16.875 9.90255 16.5787 10.43 16.0512C10.9574 15.5238 11.2538 14.8084 11.2538 14.0625C11.2538 13.3166 10.9574 12.6012 10.43 12.0738C9.90255 11.5463 9.18717 11.25 8.44125 11.25C7.69533 11.25 6.97996 11.5463 6.45252 12.0738C5.92507 12.6012 5.62875 13.3166 5.62875 14.0625C5.62875 14.8084 5.92507 15.5238 6.45252 16.0512C6.97996 16.5787 7.69533 16.875 8.44125 16.875Z" fill="black"/>
    <path d="M26.2538 24.375C26.2538 25.3696 25.8587 26.3234 25.1554 27.0266C24.4521 27.7299 23.4983 28.125 22.5038 28.125H3.75375C2.75919 28.125 1.80536 27.7299 1.1021 27.0266C0.398842 26.3234 0.00375366 25.3696 0.00375366 24.375V9.375C0.00375317 8.38109 0.398327 7.42783 1.10078 6.72467C1.80323 6.02152 2.75609 5.62599 3.75 5.625C3.75 4.63044 4.14509 3.67661 4.84835 2.97335C5.55161 2.27009 6.50544 1.875 7.5 1.875H26.25C27.2446 1.875 28.1984 2.27009 28.9017 2.97335C29.6049 3.67661 30 4.63044 30 5.625V20.625C30 21.6189 29.6054 22.5722 28.903 23.2753C28.2005 23.9785 27.2477 24.374 26.2538 24.375ZM26.25 3.75H7.5C7.00272 3.75 6.52581 3.94754 6.17418 4.29917C5.82255 4.65081 5.625 5.12772 5.625 5.625H22.5038C23.4983 5.625 24.4521 6.02009 25.1554 6.72335C25.8587 7.42661 26.2538 8.38044 26.2538 9.375V22.5C26.7504 22.499 27.2263 22.301 27.5772 21.9495C27.928 21.598 28.125 21.1216 28.125 20.625V5.625C28.125 5.12772 27.9275 4.65081 27.5758 4.29917C27.2242 3.94754 26.7473 3.75 26.25 3.75ZM3.75375 7.5C3.25647 7.5 2.77956 7.69754 2.42793 8.04918C2.0763 8.40081 1.87875 8.87772 1.87875 9.375V24.375L6.84 19.9613C6.99325 19.8086 7.19459 19.7136 7.40989 19.6924C7.62518 19.6712 7.84118 19.7251 8.02125 19.845L13.0088 23.1694L19.965 16.2131C20.104 16.074 20.2833 15.982 20.4775 15.9504C20.6717 15.9188 20.8709 15.949 21.0469 16.0369L24.3788 19.6875V9.375C24.3788 8.87772 24.1812 8.40081 23.8296 8.04918C23.4779 7.69754 23.001 7.5 22.5038 7.5H3.75375Z" fill="black"/>
  </g>
  <defs>
    <clipPath id="clip0_284_258">
      <rect width="30" height="30" fill="white"/>
    </clipPath>
  </defs>
</svg>
