<svg width="27" height="26" viewBox="0 0 27 26" fill="none" xmlns="http://www.w3.org/2000/svg">
  <path d="M25.8445 13.0961C26.0445 18.2193 23.3445 22.7277 19.2445 24.8794C18.6445 25.1868 17.9445 24.8794 17.7445 24.2646L15.7445 18.3217C15.5445 17.8094 15.7445 17.1946 16.1445 16.7848C17.0445 15.9651 17.6445 14.633 17.5445 13.301C17.3445 11.2517 15.6445 9.61229 13.6445 9.50983C11.3445 9.40736 9.44453 11.3542 9.44453 13.7108C9.44453 14.9404 9.94453 16.0675 10.7445 16.7848C11.2445 17.1946 11.3445 17.9119 11.1445 18.5266L9.24453 24.2646C9.04453 24.8794 8.34453 25.1868 7.74453 24.8794C3.84453 22.7277 1.14453 18.5266 1.14453 13.7108C1.14453 6.53837 6.84453 0.800395 13.8445 1.00532C20.2445 1.21025 25.5445 6.53837 25.8445 13.0961Z" stroke="black" stroke-width="2" stroke-miterlimit="10"/>
</svg>
