<svg width="30" height="30" viewBox="0 0 30 30" fill="none" xmlns="http://www.w3.org/2000/svg">
  <path d="M15.4416 0.135392C15.3059 0.0464948 15.1546 0 15.0009 0C14.8473 0 14.6959 0.0464948 14.5603 0.135392L0.497586 9.36663C0.347823 9.46512 0.222603 9.61182 0.135297 9.79107C0.0479902 9.97032 0.00187503 10.1754 0.00187503 10.3844C0.00187503 10.5934 0.0479902 10.7984 0.135297 10.9777C0.222603 11.1569 0.347823 11.3036 0.497586 11.4021L5.9783 15L0.495711 18.5979C0.345948 18.6964 0.220728 18.8431 0.133422 19.0223C0.0461152 19.2016 0 19.4066 0 19.6156C0 19.8246 0.0461152 20.0297 0.133422 20.2089C0.220728 20.3882 0.345948 20.5349 0.495711 20.6334L14.5584 29.8646C14.6941 29.9535 14.8454 30 14.9991 30C15.1527 30 15.3041 29.9535 15.4397 29.8646L29.5024 20.6334C29.6522 20.5349 29.7774 20.3882 29.8647 20.2089C29.952 20.0297 29.9981 19.8246 29.9981 19.6156C29.9981 19.4066 29.952 19.2016 29.8647 19.0223C29.7774 18.8431 29.6522 18.6964 29.5024 18.5979L24.0255 15L29.5043 11.4021C29.6541 11.3036 29.7793 11.1569 29.8666 10.9777C29.9539 10.7984 30 10.5934 30 10.3844C30 10.1754 29.9539 9.97032 29.8666 9.79107C29.7793 9.61182 29.6541 9.46512 29.5043 9.36663L15.4416 0.135392ZM22.0323 16.3085L27.0724 19.6156L15.0009 27.5383L2.9295 19.6156L7.96958 16.3085L14.5603 20.6334C14.6959 20.7223 14.8473 20.7688 15.0009 20.7688C15.1546 20.7688 15.3059 20.7223 15.4416 20.6334L22.0323 16.3085ZM15.0009 18.3071L2.9295 10.3844L15.0009 2.46166L27.0724 10.3844L15.0009 18.3071Z" fill="black"/>
</svg>
