<svg width="32" height="32" viewBox="0 0 32 32" fill="none" xmlns="http://www.w3.org/2000/svg">
<path d="M2.66675 16C2.66675 23.3638 8.63628 29.3333 16.0001 29.3333C18.2092 29.3333 20.0001 27.5424 20.0001 25.3333V24.6666C20.0001 24.0474 20.0001 23.7378 20.0343 23.4779C20.2706 21.6829 21.683 20.2705 23.478 20.0342C23.7379 20 24.0475 20 24.6667 20H25.3334C27.5426 20 29.3334 18.2091 29.3334 16C29.3334 8.63616 23.3639 2.66663 16.0001 2.66663C8.63628 2.66663 2.66675 8.63616 2.66675 16Z" stroke="black" stroke-width="2" stroke-linecap="round" stroke-linejoin="round"/>
<path d="M9.33341 17.3333C10.0698 17.3333 10.6667 16.7363 10.6667 16C10.6667 15.2636 10.0698 14.6666 9.33341 14.6666C8.59704 14.6666 8.00008 15.2636 8.00008 16C8.00008 16.7363 8.59704 17.3333 9.33341 17.3333Z" stroke="black" stroke-width="2" stroke-linecap="round" stroke-linejoin="round"/>
<path d="M21.3334 12C22.0698 12 22.6667 11.403 22.6667 10.6666C22.6667 9.93025 22.0698 9.33329 21.3334 9.33329C20.597 9.33329 20.0001 9.93025 20.0001 10.6666C20.0001 11.403 20.597 12 21.3334 12Z" stroke="black" stroke-width="2" stroke-linecap="round" stroke-linejoin="round"/>
<path d="M13.3334 10.6666C14.0698 10.6666 14.6667 10.0697 14.6667 9.33329C14.6667 8.59691 14.0698 7.99996 13.3334 7.99996C12.597 7.99996 12.0001 8.59691 12.0001 9.33329C12.0001 10.0697 12.597 10.6666 13.3334 10.6666Z" stroke="black" stroke-width="2" stroke-linecap="round" stroke-linejoin="round"/>
</svg>
