<svg width="20" height="20" viewBox="0 0 20 20" fill="none" xmlns="http://www.w3.org/2000/svg">
  <g clip-path="url(#clip0_725_341)">
    <path d="M16.25 8.125C16.25 7.95924 16.1842 7.80027 16.0669 7.68306C15.9497 7.56585 15.7908 7.5 15.625 7.5H9.375C9.20924 7.5 9.05027 7.56585 8.93306 7.68306C8.81585 7.80027 8.75 7.95924 8.75 8.125C8.75 8.29076 8.81585 8.44973 8.93306 8.56694C9.05027 8.68415 9.20924 8.75 9.375 8.75H15.625C15.7908 8.75 15.9497 8.68415 16.0669 8.56694C16.1842 8.44973 16.25 8.29076 16.25 8.125ZM16.25 11.875C16.25 11.7092 16.1842 11.5503 16.0669 11.4331C15.9497 11.3158 15.7908 11.25 15.625 11.25H9.375C9.20924 11.25 9.05027 11.3158 8.93306 11.4331C8.81585 11.5503 8.75 11.7092 8.75 11.875C8.75 12.0408 8.81585 12.1997 8.93306 12.3169C9.05027 12.4342 9.20924 12.5 9.375 12.5H15.625C15.7908 12.5 15.9497 12.4342 16.0669 12.3169C16.1842 12.1997 16.25 12.0408 16.25 11.875ZM15.625 15C15.7908 15 15.9497 15.0658 16.0669 15.1831C16.1842 15.3003 16.25 15.4592 16.25 15.625C16.25 15.7908 16.1842 15.9497 16.0669 16.0669C15.9497 16.1842 15.7908 16.25 15.625 16.25H9.375C9.20924 16.25 9.05027 16.1842 8.93306 16.0669C8.81585 15.9497 8.75 15.7908 8.75 15.625C8.75 15.4592 8.81585 15.3003 8.93306 15.1831C9.05027 15.0658 9.20924 15 9.375 15H15.625Z" fill="black"/>
    <path d="M17.5 0C18.163 0 18.7989 0.263392 19.2678 0.732233C19.7366 1.20107 20 1.83696 20 2.5V17.5C20 18.163 19.7366 18.7989 19.2678 19.2678C18.7989 19.7366 18.163 20 17.5 20H2.5C1.83696 20 1.20107 19.7366 0.732233 19.2678C0.263392 18.7989 0 18.163 0 17.5V2.5C0 1.83696 0.263392 1.20107 0.732233 0.732233C1.20107 0.263392 1.83696 0 2.5 0L17.5 0ZM2.5 1.25C2.16848 1.25 1.85054 1.3817 1.61612 1.61612C1.3817 1.85054 1.25 2.16848 1.25 2.5V3.75H18.75V2.5C18.75 2.16848 18.6183 1.85054 18.3839 1.61612C18.1495 1.3817 17.8315 1.25 17.5 1.25H2.5ZM1.25 5V17.5C1.25 17.8315 1.3817 18.1495 1.61612 18.3839C1.85054 18.6183 2.16848 18.75 2.5 18.75H5V5H1.25ZM6.25 5V18.75H17.5C17.8315 18.75 18.1495 18.6183 18.3839 18.3839C18.6183 18.1495 18.75 17.8315 18.75 17.5V5H6.25Z" fill="black"/>
  </g>
  <defs>
    <clipPath id="clip0_725_341">
      <rect width="20" height="20" fill="white"/>
    </clipPath>
  </defs>
</svg>
